<svg width="48" height="48" viewBox="0 0 48 48" fill="none" xmlns="http://www.w3.org/2000/svg">
<g filter="url(#filter0_d_3628_816)">
<rect x="4" width="40" height="40" rx="8" fill="white"/>
<rect x="4.75" y="0.75" width="38.5" height="38.5" rx="7.25" stroke="black" stroke-width="1.5"/>
</g>
<path d="M25.7612 19.9989L33.6305 12.1413C33.8657 11.9061 33.9979 11.587 33.9979 11.2543C33.9979 10.9217 33.8657 10.6026 33.6305 10.3674C33.3953 10.1322 33.0763 10 32.7437 10C32.411 10 32.092 10.1322 31.8568 10.3674L24 18.2375L16.1432 10.3674C15.908 10.1322 15.589 10 15.2563 10C14.9237 10 14.6047 10.1322 14.3695 10.3674C14.1343 10.6026 14.0021 10.9217 14.0021 11.2543C14.0021 11.587 14.1343 11.9061 14.3695 12.1413L22.2388 19.9989L14.3695 27.8566C14.2524 27.9727 14.1595 28.1109 14.0961 28.2631C14.0326 28.4153 14 28.5786 14 28.7435C14 28.9084 14.0326 29.0717 14.0961 29.224C14.1595 29.3762 14.2524 29.5143 14.3695 29.6305C14.4856 29.7476 14.6238 29.8405 14.776 29.9039C14.9282 29.9673 15.0914 30 15.2563 30C15.4212 30 15.5845 29.9673 15.7367 29.9039C15.8889 29.8405 16.0271 29.7476 16.1432 29.6305L24 21.7603L31.8568 29.6305C31.9729 29.7476 32.1111 29.8405 32.2633 29.9039C32.4155 29.9673 32.5788 30 32.7437 30C32.9086 30 33.0718 29.9673 33.224 29.9039C33.3762 29.8405 33.5144 29.7476 33.6305 29.6305C33.7476 29.5143 33.8405 29.3762 33.9039 29.224C33.9674 29.0717 34 28.9084 34 28.7435C34 28.5786 33.9674 28.4153 33.9039 28.2631C33.8405 28.1109 33.7476 27.9727 33.6305 27.8566L25.7612 19.9989Z" fill="black"/>
<defs>
<filter id="filter0_d_3628_816" x="0" y="0" width="48" height="48" filterUnits="userSpaceOnUse" color-interpolation-filters="sRGB">
<feFlood flood-opacity="0" result="BackgroundImageFix"/>
<feColorMatrix in="SourceAlpha" type="matrix" values="0 0 0 0 0 0 0 0 0 0 0 0 0 0 0 0 0 0 127 0" result="hardAlpha"/>
<feOffset dy="4"/>
<feGaussianBlur stdDeviation="2"/>
<feComposite in2="hardAlpha" operator="out"/>
<feColorMatrix type="matrix" values="0 0 0 0 0 0 0 0 0 0 0 0 0 0 0 0 0 0 0.25 0"/>
<feBlend mode="normal" in2="BackgroundImageFix" result="effect1_dropShadow_3628_816"/>
<feBlend mode="normal" in="SourceGraphic" in2="effect1_dropShadow_3628_816" result="shape"/>
</filter>
</defs>
</svg>
