<svg width="210" height="76" viewBox="0 0 210 76" fill="none" xmlns="http://www.w3.org/2000/svg">
<g filter="url(#filter0_d_634_1421)">
<path d="M62.9496 28.1883C66.3618 28.1883 68.9675 29.0651 70.7667 30.8186C72.5969 32.5356 73.2904 35.1842 73.2904 38.7644V58.7111H68.6728L67.3234 54.656H67.1373C66.4238 55.7154 65.6794 56.5922 64.9039 57.2863C64.1594 57.9804 63.2908 58.4736 62.2981 58.7659C61.3365 59.0947 60.1422 59.2591 58.7153 59.2591C57.2263 59.2591 55.8769 58.9303 54.6671 58.2727C53.4883 57.5786 52.7793 56.5374 52.0969 55.1492C51.4144 53.7244 51.2948 52.1953 51.2948 50.0399C51.2948 46.8615 52.0193 44.5235 53.9115 43.0256C55.8038 41.4913 58.4206 40.3901 62.2051 40.244L66.6255 40.0796V38.7644C66.6255 37.1935 66.2688 36.0427 65.5553 35.3121C64.8728 34.5814 63.9112 34.2161 62.6704 34.2161C61.4296 34.2161 60.2198 34.4353 59.041 34.8737C57.8622 35.2756 56.6834 35.787 55.5047 36.4081L53.2247 30.8734C54.5896 30.0332 56.0941 29.3756 57.7381 28.9007C59.4132 28.4257 61.1504 28.1883 62.9496 28.1883ZM63.9267 44.9566C61.6932 45.0297 59.9206 45.5046 59.0521 46.3814C58.1835 47.2582 57.7492 48.409 57.7492 49.8337C57.7492 51.0758 58.0594 51.9709 58.6798 52.5188C59.3002 53.0303 60.1068 53.286 61.0994 53.286C62.5884 53.286 64.0663 52.7746 65.09 51.7517C66.1136 50.6922 66.6255 49.2127 66.6255 47.313V44.847L63.9267 44.9566Z" fill="white"/>
<path d="M107.178 28.2431C110.063 28.2431 112.234 29.1199 113.692 30.8734C115.181 32.5904 115.925 35.3669 115.925 39.2028V58.7111H108.992V41.2303C108.992 39.0749 108.682 37.4675 108.062 36.4081C107.441 35.3121 106.48 34.7641 105.177 34.7641C103.347 34.7641 102.044 35.5313 101.268 37.0656C100.493 38.6 100.105 40.8102 100.105 43.6963V58.7111H93.1719V41.2303C93.1719 39.8056 93.0323 38.6183 92.7532 37.6684C92.474 36.7186 92.0552 36.0062 91.4968 35.5313C90.9385 35.0198 90.225 34.7641 89.3564 34.7641C88.0846 34.7641 87.0764 35.1477 86.3319 35.9149C85.5874 36.6821 85.0601 37.7963 84.7499 39.2576C84.4397 40.7189 84.2846 42.509 84.2846 44.6278V58.7111H77.5731V28.7911H82.656L83.5866 32.627H83.9589C84.4862 31.6041 85.1376 30.7821 85.9132 30.161C86.6887 29.5034 87.5417 29.0285 88.4723 28.7363C89.434 28.4075 90.3956 28.2431 91.3572 28.2431C93.2185 28.2431 94.8005 28.6084 96.1034 29.339C97.4062 30.0332 98.3989 31.1291 99.0813 32.627H99.6862C100.462 31.0926 101.532 29.9784 102.897 29.2843C104.293 28.5901 105.72 28.2431 107.178 28.2431Z" fill="white"/>
<path d="M146.096 28.765C148.454 28.765 150.47 29.2947 152.145 30.3541C153.852 31.4136 155.17 32.9479 156.1 34.9572C157.031 36.9665 157.496 39.4324 157.496 42.355V46.3005H141.118C141.18 48.602 141.754 50.4104 142.839 51.7256C143.956 53.0407 145.492 53.6983 147.446 53.6983C149.09 53.6983 150.579 53.5156 151.913 53.1503C153.247 52.7485 154.627 52.1457 156.054 51.342V57.6438C154.813 58.3745 153.495 58.9042 152.099 59.233C150.734 59.5983 149.074 59.7809 147.12 59.7809C144.576 59.7809 142.327 59.233 140.373 58.137C138.419 57.0045 136.883 55.3057 135.767 53.0407C134.65 50.7757 134.092 47.9262 134.092 44.4921C134.092 40.985 134.588 38.0807 135.58 35.7792C136.604 33.4411 138.016 31.6875 139.815 30.5185C141.614 29.3495 143.708 28.765 146.096 28.765ZM146.143 34.5736C144.809 34.5736 143.692 35.0851 142.793 36.108C141.924 37.1309 141.412 38.72 141.257 40.8754H150.982C150.982 39.6699 150.796 38.5922 150.424 37.6423C150.083 36.6925 149.555 35.9436 148.842 35.3956C148.128 34.8476 147.229 34.5736 146.143 34.5736Z" fill="white"/>
<path d="M179.251 50.3556C179.251 52.3649 178.848 54.0819 178.041 55.5067C177.235 56.8949 176.025 57.9543 174.412 58.685C172.799 59.4156 170.798 59.7809 168.409 59.7809C166.641 59.7809 165.121 59.6348 163.849 59.3426C162.578 59.0868 161.306 58.6484 160.034 58.0274V51.2872C161.399 52.0178 162.872 52.6206 164.454 53.0955C166.036 53.5704 167.432 53.8079 168.642 53.8079C170.007 53.8079 170.969 53.5704 171.527 53.0955C172.116 52.6206 172.411 51.9996 172.411 51.2324C172.411 50.7209 172.287 50.2643 172.039 49.8624C171.822 49.4606 171.325 49.0039 170.55 48.4924C169.774 47.981 168.565 47.3234 166.92 46.5197C165.338 45.716 164.036 44.9305 163.012 44.1634C161.988 43.3596 161.228 42.4098 160.732 41.3138C160.236 40.1813 159.987 38.7748 159.987 37.0943C159.987 34.3179 160.903 32.2355 162.733 30.8473C164.563 29.4591 166.998 28.765 170.038 28.765C171.62 28.765 172.859 28.7284 174.286 29.0937C175.713 29.459 176.723 29.7461 178.496 30.3984L176.878 36.9847C176.04 36.5464 175.234 36.1628 174.458 35.834C173.683 35.5052 172.923 35.2495 172.178 35.0668C171.465 34.8841 170.72 34.7928 169.945 34.7928C168.921 34.7928 168.146 34.9572 167.618 35.286C167.122 35.6148 166.874 36.108 166.874 36.7655C166.874 37.2405 166.998 37.6789 167.246 38.0807C167.525 38.446 168.037 38.8479 168.782 39.2863C169.557 39.7247 170.689 40.3092 172.178 41.0398C173.636 41.734 174.893 42.4646 175.947 43.2318C177.002 43.9624 177.809 44.894 178.367 46.0265C178.956 47.1225 179.251 48.5655 179.251 50.3556Z" fill="white"/>
<path d="M12.9795 17.3511C16.7463 14.4807 25.0555 15.5245 28.7114 14.3503C32.3673 13.176 38.2391 10.697 39.5686 6C39.5686 6 38.4607 13.3065 37.5744 16.0464C36.6881 18.7863 33.9184 21.2653 30.7056 22.831C27.4928 24.3967 16.3032 24.3967 16.3032 24.3967V34.1821H31.1487C31.1487 34.1821 29.5976 37.3135 26.8279 39.2706C24.0582 41.2277 16.3032 40.8362 16.3032 40.8362V51.4045C16.3032 51.4045 25.0452 51.1883 28.7114 51.535C32.3777 51.8817 35.2479 58.711 35.2479 58.711C35.2479 58.711 14.9738 57.9282 11.9826 58.711C9.74844 59.2957 7.5143 60.8265 6.52643 61.5641C6.12543 62.1575 6 61.9728 6 61.9728C6 61.9728 6.19165 61.814 6.52643 61.5641C6.87917 61.0421 7.44514 59.9181 8.32653 57.5368C10.2099 52.4483 9.3233 24.1357 9.3233 24.1357C9.3233 24.1357 9.21275 20.2215 12.9795 17.3511Z" fill="white"/>
<path d="M34.8047 30.007C38.7111 28.2234 39.706 26.7278 40.656 21.6567H44V28.4413H49.7609V34.1644H43.7784V52.5788H49.7609L45.551 58.711C45.551 58.711 43.4549 58.7467 41.8951 58.711C41.3071 58.6976 40.5656 58.4501 40.0117 58.1891C39.4577 57.9282 38.5714 56.6234 38.5714 56.6234C38.5714 56.6234 37.9515 55.394 37.9024 53.4769C37.8533 51.5598 37.9024 34.1644 37.9024 34.1644H34.8047V30.007Z" fill="white"/>
<path d="M118.338 30.5289C122.245 28.7453 123.24 27.2496 124.189 22.1786H127.534V28.9632H133.294V34.9472H127.312V53.1007H133.294L129.085 59.2329C129.085 59.2329 126.988 59.2686 125.429 59.2329C124.841 59.2195 124.099 58.972 123.545 58.711C122.991 58.4501 122.105 57.1453 122.105 57.1453C122.105 57.1453 121.485 55.9159 121.436 53.9988C121.387 52.0817 121.436 34.9472 121.436 34.9472H118.338V30.5289Z" fill="white"/>
<path d="M181.044 30.5289C184.95 28.7453 185.945 27.2496 186.895 22.1786C189.957 21.8232 191.416 20.8622 193.895 18.7863C191.693 22.4228 190.848 24.6356 190.239 28.9632H196V34.9472H190.018V53.1007H196L191.79 59.2329C191.79 59.2329 189.694 59.2686 188.134 59.2329C187.546 59.2195 186.805 58.972 186.251 58.711C185.697 58.4501 184.811 57.1453 184.811 57.1453C184.811 57.1453 184.191 55.9159 184.141 53.9988C184.092 52.0817 184.141 34.9472 184.141 34.9472H181.044V30.5289Z" fill="white"/>
</g>
<defs>
<filter id="filter0_d_634_1421" x="0" y="0" width="210" height="76" filterUnits="userSpaceOnUse" color-interpolation-filters="sRGB">
<feFlood flood-opacity="0" result="BackgroundImageFix"/>
<feColorMatrix in="SourceAlpha" type="matrix" values="0 0 0 0 0 0 0 0 0 0 0 0 0 0 0 0 0 0 127 0" result="hardAlpha"/>
<feOffset dx="4" dy="4"/>
<feGaussianBlur stdDeviation="5"/>
<feComposite in2="hardAlpha" operator="out"/>
<feColorMatrix type="matrix" values="0 0 0 0 0 0 0 0 0 0 0 0 0 0 0 0 0 0 0.3 0"/>
<feBlend mode="normal" in2="BackgroundImageFix" result="effect1_dropShadow_634_1421"/>
<feBlend mode="normal" in="SourceGraphic" in2="effect1_dropShadow_634_1421" result="shape"/>
</filter>
</defs>
</svg>
